<svg width="30" height="17" viewBox="0 0 30 17" fill="none" xmlns="http://www.w3.org/2000/svg">
<rect width="30" height="17" fill="#F5F5F5"/>
<g id="admin panel">
<rect width="1440" height="3246" transform="translate(-572 -389)" fill="#F1F1F1"/>
<g id=" applications">
<rect id="background" x="-572" y="-85" width="1440" height="1062" fill="url(#paint0_linear_0_1)"/>
<g id="status">
<rect id="Rectangle 9" x="-276.5" y="-17.5" width="321" height="50" fill="#F1F1F1" stroke="#F6AA3F"/>
<path id="Arrow 1" d="M13.5858 16.4142C14.3668 17.1953 15.6332 17.1953 16.4142 16.4142L29.1421 3.68629C29.9232 2.90524 29.9232 1.63891 29.1421 0.857864C28.3611 0.0768156 27.0948 0.0768156 26.3137 0.857864L15 12.1716L3.68629 0.857864C2.90524 0.0768156 1.63891 0.0768156 0.857864 0.857864C0.0768156 1.63891 0.0768156 2.90524 0.857864 3.68629L13.5858 16.4142ZM13 14V15H17V14H13Z" fill="#2A2A2A"/>
</g>
</g>
</g>
<defs>
<linearGradient id="paint0_linear_0_1" x1="148" y1="-85" x2="148" y2="977" gradientUnits="userSpaceOnUse">
<stop stop-color="#D97C3D"/>
<stop offset="1" stop-color="#F6AA3F"/>
</linearGradient>
</defs>
</svg>
