<svg width="32" height="32" viewBox="0 0 32 32" fill="none" xmlns="http://www.w3.org/2000/svg">
<path fill-rule="evenodd" clip-rule="evenodd" d="M17.5818 0.0524698C17.2949 0.150815 17.05 0.352547 16.9115 0.60462C16.8771 0.6672 16.7954 1.02065 16.7299 1.39007C16.6643 1.75948 16.5975 2.09993 16.5813 2.14662C16.557 2.21643 16.4647 2.25914 16.0622 2.38674C15.7929 2.47212 15.3815 2.62661 15.148 2.73007L14.7235 2.91822L14.1101 2.51103C13.4382 2.065 13.2292 1.97038 12.9157 1.97038C12.499 1.97038 12.3803 2.03771 11.7078 2.65599C11.0129 3.29479 10.9191 3.43281 10.9175 3.81856C10.917 3.94094 10.9405 4.09712 10.9699 4.16561C11.0208 4.28442 11.4254 4.85403 11.7789 5.30462L11.9442 5.51534L11.7344 5.92567C11.6189 6.15137 11.4532 6.53328 11.3661 6.77439C11.279 7.0155 11.1852 7.22451 11.1576 7.23879C11.13 7.25311 10.7638 7.31635 10.3437 7.3793C9.49553 7.50639 9.35683 7.5564 9.11176 7.82346C8.88114 8.07473 8.84773 8.24866 8.8623 9.12178L8.87492 9.87964L8.99042 10.0741C9.11059 10.2765 9.31132 10.4507 9.50575 10.5215C9.5681 10.5442 9.97071 10.6187 10.4004 10.6869C10.8302 10.7552 11.1933 10.8235 11.2074 10.8385C11.2215 10.8537 11.2562 10.9482 11.2844 11.0487C11.366 11.3385 11.5867 11.8613 11.7734 12.207L11.9452 12.5251L11.5092 13.102C11.2693 13.4194 11.0394 13.7612 10.9981 13.8617C10.9013 14.0975 10.9206 14.489 11.0398 14.7019C11.0847 14.7823 11.3827 15.0899 11.702 15.3855C12.3601 15.9948 12.5098 16.081 12.9092 16.081C13.2279 16.081 13.3625 16.0207 14.1354 15.5321L14.7742 15.1283L15.2517 15.3421C15.5144 15.4597 15.9276 15.6162 16.1699 15.6898C16.4123 15.7635 16.6106 15.8262 16.6106 15.8291C16.6128 15.976 16.8993 17.35 16.9475 17.4446C17.0418 17.6301 17.2523 17.8189 17.4687 17.9123C17.6305 17.9821 17.7308 17.991 18.4721 18.0015C19.2321 18.0122 19.3129 18.0072 19.5169 17.9359C19.7756 17.8457 20.0102 17.6475 20.127 17.4205C20.1763 17.3248 20.2633 16.9706 20.3411 16.5497C20.4309 16.0633 20.49 15.8316 20.5291 15.8126C20.5604 15.7974 20.7623 15.7322 20.9777 15.6679C21.1931 15.6035 21.5826 15.4567 21.8432 15.3417L22.3171 15.1326L22.8812 15.533C23.6368 16.0694 23.6797 16.0892 24.0915 16.0897C24.5598 16.0903 24.6718 16.0283 25.3379 15.3998C25.9945 14.7802 26.067 14.6674 26.0685 14.2635C26.0697 13.9053 26.0442 13.8554 25.4738 13.1037L25.0587 12.5565L25.1983 12.2958C25.3885 11.9408 25.5943 11.4681 25.6976 11.1491C25.7448 11.0034 25.8037 10.8722 25.8286 10.8575C25.8534 10.8429 26.2242 10.7769 26.6527 10.7109C27.5247 10.5768 27.7424 10.4987 27.9346 10.2513C28.1561 9.96634 28.1717 9.87793 28.1579 8.98171C28.1454 8.16635 28.1449 8.16185 28.0392 7.9941C27.9254 7.81363 27.7245 7.63137 27.5425 7.54358C27.4807 7.51381 27.1064 7.43939 26.7107 7.37823C26.315 7.31708 25.9559 7.2595 25.9128 7.2503C25.8517 7.23726 25.802 7.14019 25.6866 6.80807C25.6053 6.57405 25.4401 6.18819 25.3196 5.95062L25.1005 5.5187L25.5196 4.96633C26.0371 4.28434 26.1038 4.15312 26.1053 3.81395C26.1071 3.41305 26.0029 3.25285 25.3502 2.65368C24.7328 2.08688 24.5328 1.97119 24.1699 1.97093C23.7758 1.97068 23.6634 2.02504 22.5836 2.73793L22.3094 2.91891L21.8836 2.72335C21.6494 2.6158 21.2392 2.45583 20.9719 2.36782C20.5983 2.24481 20.4818 2.19097 20.4676 2.13478C20.4574 2.09459 20.3961 1.77402 20.3313 1.4224C20.1832 0.619014 20.1438 0.520048 19.8847 0.300415C19.5624 0.0271529 19.4245 -0.00284025 18.5049 0.000191937C17.952 0.00205509 17.6849 0.0171795 17.5818 0.0524698ZM19.3806 6.02003C19.9822 6.17044 20.4631 6.44224 20.9235 6.89199C21.553 7.50705 21.8306 8.16021 21.8362 9.0394C21.8386 9.42774 21.8227 9.57058 21.7489 9.82287C21.3993 11.0178 20.3607 11.8964 19.0679 12.0908C18.6526 12.1533 17.9682 12.1181 17.5897 12.015C17.0301 11.8624 16.5537 11.5917 16.1361 11.1889C15.5756 10.6483 15.2952 10.0881 15.199 9.31672C14.9992 7.71401 16.2686 6.20518 18.0401 5.93952C18.2932 5.90156 19.1008 5.95007 19.3806 6.02003ZM29.34 17.2631C29.0529 17.335 28.7359 17.473 28.5275 17.6167C28.4338 17.6812 27.5693 18.556 26.6063 19.5606C25.6432 20.5651 24.7566 21.4888 24.6359 21.6132C24.4207 21.835 24.4161 21.8444 24.3933 22.1065C24.2589 23.6482 22.7932 25.0308 21.0703 25.2411C20.8561 25.2673 19.9618 25.2774 18.4877 25.2704L16.2326 25.2598L16.0694 25.159C15.9796 25.1036 15.8576 24.9897 15.7981 24.9059C15.707 24.7775 15.6901 24.715 15.6901 24.5075C15.6901 24.2923 15.705 24.2415 15.8093 24.103C15.8749 24.0159 16.0071 23.9035 16.1031 23.8533L16.2776 23.7619L18.6277 23.7437C20.9633 23.7255 20.9793 23.7249 21.2323 23.6406C21.8892 23.4216 22.3758 22.9724 22.6079 22.3708C22.7235 22.0712 22.7235 21.5223 22.608 21.1838C22.3955 20.5616 21.8263 20.056 21.1488 19.8878C20.9741 19.8444 20.3461 19.8355 17.4316 19.8352L13.9246 19.8347L13.4169 19.6661C12.2223 19.2693 11.789 19.1711 10.9259 19.1016C10.3676 19.0566 9.831 19.0744 9.17749 19.1596C7.90728 19.3253 6.55083 19.8868 5.48692 20.6872C5.32535 20.8088 4.02471 21.9941 2.59658 23.3212L0 25.7342L0.305272 26.0062C0.473184 26.1557 2.02395 27.5655 3.75144 29.139C5.47893 30.7126 6.90494 32 6.92033 32C6.93573 32 7.37918 31.589 7.90579 31.0867L8.86328 30.1734H14.7722C20.5034 30.1734 20.6932 30.1712 21.0818 30.1009C22.0239 29.9306 22.824 29.5669 23.5214 28.9921C23.763 28.793 24.4108 28.1088 28.9723 23.2353C31.8532 20.1573 31.7082 20.3239 31.8852 19.8895C32.0076 19.5889 32.0375 19.0306 31.9487 18.702C31.7453 17.9494 31.2135 17.4482 30.4187 17.2597C30.1271 17.1906 29.6233 17.1922 29.34 17.2631Z" fill="#F6AA3F"/>
</svg>
