<svg width="80" height="80" viewBox="0 0 80 80" fill="none" xmlns="http://www.w3.org/2000/svg">
<path fill-rule="evenodd" clip-rule="evenodd" d="M43.9546 0.131174C43.2373 0.377037 42.6251 0.881367 42.2788 1.51155C42.1928 1.668 41.9885 2.55163 41.8247 3.47517C41.6609 4.3987 41.4937 5.24982 41.4532 5.36654C41.3926 5.54107 41.1617 5.64784 40.1554 5.96686C39.4822 6.1803 38.4538 6.56654 37.8701 6.82519L36.8087 7.29554L35.2753 6.27757C33.5955 5.16251 33.073 4.92596 32.2893 4.92596C31.2474 4.92596 30.9508 5.09428 29.2695 6.63997C27.5323 8.23698 27.2977 8.58203 27.2937 9.54639C27.2924 9.85235 27.3513 10.2428 27.4247 10.414C27.552 10.711 28.5634 12.1351 29.4473 13.2616L29.8606 13.7883L29.3359 14.8142C29.0473 15.3784 28.633 16.3332 28.4152 16.936C28.1975 17.5388 27.9629 18.0613 27.894 18.097C27.8251 18.1328 26.9094 18.2909 25.8593 18.4482C23.7388 18.766 23.3921 18.891 22.7794 19.5586C22.2029 20.1868 22.1193 20.6216 22.1558 22.8044L22.1873 24.6991L22.4761 25.1854C22.7765 25.6911 23.2783 26.1268 23.7644 26.3038C23.9203 26.3605 24.9268 26.5466 26.001 26.7173C27.0754 26.888 27.9832 27.0586 28.0185 27.0964C28.0537 27.1342 28.1404 27.3705 28.2111 27.6217C28.4149 28.3461 28.9667 29.6533 29.4335 30.5174L29.863 31.3127L28.7729 32.755C28.1734 33.5484 27.5985 34.403 27.4953 34.6542C27.2531 35.2437 27.3016 36.2225 27.5994 36.7548C27.7118 36.9557 28.4569 37.7247 29.255 38.4637C30.9002 39.987 31.2744 40.2025 32.273 40.2025C33.0697 40.2025 33.4064 40.0518 35.3386 38.8302L36.9355 37.8206L38.1293 38.3552C38.7859 38.6493 39.8189 39.0404 40.4247 39.2246C41.0306 39.4087 41.5264 39.5654 41.5265 39.5727C41.5321 39.9401 42.2484 43.375 42.3687 43.6115C42.6046 44.0752 43.1307 44.5473 43.6718 44.7807C44.0762 44.9552 44.327 44.9775 46.1803 45.0037C48.0802 45.0306 48.2821 45.0179 48.7922 44.8399C49.4391 44.6142 50.0255 44.1187 50.3176 43.5512C50.4408 43.312 50.6583 42.4265 50.8527 41.3743C51.0773 40.1582 51.225 39.5789 51.3227 39.5315C51.4011 39.4934 51.9057 39.3306 52.4443 39.1697C52.9828 39.0088 53.9566 38.6418 54.6081 38.3543L55.7926 37.8314L57.203 38.8325C59.0921 40.1736 59.1993 40.2229 60.2289 40.2243C61.3995 40.2258 61.6795 40.0707 63.3447 38.4994C64.9863 36.9504 65.1674 36.6686 65.1711 35.6588C65.1744 34.7631 65.1104 34.6384 63.6845 32.7592L62.6467 31.3913L62.9958 30.7395C63.4713 29.8519 63.9857 28.6704 64.244 27.8728C64.362 27.5084 64.5093 27.1805 64.5714 27.1438C64.6335 27.1071 65.5605 26.9422 66.6317 26.7773C68.8119 26.4419 69.3559 26.2468 69.8366 25.6283C70.3903 24.9158 70.4292 24.6948 70.3948 22.4543C70.3636 20.4159 70.3623 20.4046 70.0979 19.9852C69.8136 19.5341 69.3112 19.0784 68.8562 18.859C68.7018 18.7845 67.7661 18.5985 66.7767 18.4456C65.7874 18.2927 64.8898 18.1488 64.7821 18.1257C64.6292 18.0931 64.5051 17.8505 64.2165 17.0202C64.0131 16.4351 63.6003 15.4705 63.299 14.8766L62.7513 13.7968L63.7991 12.4158C65.0928 10.7109 65.2595 10.3828 65.2634 9.53488C65.2679 8.53262 65.0072 8.13213 63.3755 6.63421C61.832 5.21721 61.332 4.92797 60.4247 4.92733C59.4395 4.92669 59.1585 5.06259 56.459 6.84482L55.7735 7.29728L54.709 6.80838C54.1235 6.5395 53.0979 6.13956 52.4298 5.91955C51.4958 5.61204 51.2044 5.47741 51.169 5.33695C51.1435 5.23648 50.9902 4.43505 50.8282 3.55599C50.4581 1.54753 50.3596 1.30012 49.7119 0.751038C48.906 0.0678823 48.5613 -0.00710062 46.2623 0.000479844C44.8799 0.00513772 44.2121 0.0429487 43.9546 0.131174ZM48.4515 15.0501C49.9554 15.4261 51.1578 16.1056 52.3087 17.23C53.8825 18.7676 54.5766 20.4005 54.5905 22.5985C54.5965 23.5693 54.5568 23.9264 54.3722 24.5572C53.4983 27.5445 50.9018 29.741 47.6697 30.2271C46.6316 30.3832 44.9204 30.2953 43.9743 30.0374C42.5752 29.656 41.3843 28.9792 40.3402 27.9722C38.9389 26.6207 38.2379 25.2202 37.9975 23.2918C37.4981 19.285 40.6714 15.513 45.1004 14.8488C45.7331 14.7539 47.752 14.8752 48.4515 15.0501ZM73.35 43.1578C72.6323 43.3376 71.8397 43.6824 71.3187 44.0416C71.0846 44.2031 68.9232 46.39 66.5156 48.9014C64.1081 51.4128 61.8915 53.722 61.5898 54.033C61.0518 54.5876 61.0403 54.611 60.9832 55.2663C60.6472 59.1205 56.9829 62.5771 52.6759 63.1029C52.1403 63.1682 49.9046 63.1936 46.2192 63.1761L40.5816 63.1494L40.1736 62.8975C39.949 62.7589 39.6439 62.4742 39.4954 62.2648C39.2676 61.9439 39.2252 61.7876 39.2252 61.2688C39.2252 60.7308 39.2626 60.6039 39.5233 60.2575C39.6873 60.0397 40.0178 59.7588 40.2577 59.6332L40.694 59.4049L46.5691 59.3592C52.4083 59.3138 52.4482 59.3123 53.0808 59.1014C54.723 58.5539 55.9394 57.4311 56.5198 55.927C56.8088 55.1781 56.8088 53.8058 56.5199 52.9595C55.9889 51.4039 54.5658 50.1399 52.8721 49.7195C52.4352 49.611 50.8653 49.5888 43.5789 49.5879L34.8114 49.5868L33.5422 49.1652C30.5558 48.1733 29.4726 47.9277 27.3148 47.7539C25.919 47.6414 24.5775 47.686 22.9437 47.8991C19.7682 48.3133 16.3771 49.7169 13.7173 51.7181C13.3134 52.022 10.0618 54.9853 6.49145 58.3031L0 64.3355L0.763181 65.0154C1.18296 65.3893 5.05987 68.9138 9.37859 72.8476C13.6973 76.7814 17.2623 80 17.3008 80C17.3393 80 18.448 78.9725 19.7645 77.7167L22.1582 75.4335H36.9306C51.2585 75.4335 51.7331 75.428 52.7046 75.2523C55.0597 74.8266 57.0599 73.9174 58.8035 72.4802C59.4074 71.9825 61.0271 70.2719 72.4308 58.0882C79.6331 50.3932 79.2706 50.8096 79.7129 49.7238C80.0191 48.9721 80.0938 47.5764 79.8717 46.755C79.3632 44.8736 78.0339 43.6205 76.0467 43.1493C75.3178 42.9765 74.0583 42.9805 73.35 43.1578Z" fill="#F6AA3F"/>
</svg>
