<svg width="31" height="30" viewBox="0 0 31 30" fill="none" xmlns="http://www.w3.org/2000/svg">
<path fill-rule="evenodd" clip-rule="evenodd" d="M13.4504 0.0181C12.6791 0.0824045 11.3884 0.348277 10.498 0.626273C9.14455 1.04888 7.53548 1.84949 6.32034 2.70489C3.97461 4.35625 2.15135 6.66399 1.02732 9.40433C0.546871 10.5757 0.147103 12.1235 0.0494094 13.1907C-0.00404728 13.7747 -0.00167844 16.2167 0.052883 16.7862C0.148221 17.7808 0.541908 19.3234 0.983049 20.4307C2.17007 23.4103 4.16641 25.8632 6.81011 27.5904C8.66629 28.803 10.8252 29.6066 12.953 29.8769C13.7129 29.9734 14.14 29.9993 14.9895 30C17.0665 30.0017 18.7884 29.6757 20.6209 28.9337C25.6728 26.8882 29.3072 22.1514 29.9171 16.818C30.0783 15.4085 30.0288 13.6716 29.7873 12.268C29.4159 10.1085 28.3921 7.79045 26.9838 5.92024C25.3767 3.7862 23.1952 2.10655 20.6484 1.04236C19.4445 0.539377 17.9372 0.145404 16.8456 0.0484863C16.3445 0.00400449 13.8837 -0.0180454 13.4504 0.0181ZM15.3783 2.34191C17.2231 2.4393 18.7301 2.79296 20.2569 3.48682C21.569 4.08313 22.6937 4.85955 23.7817 5.92024C24.7425 6.85688 25.3833 7.67734 26.0182 8.78347C26.8337 10.2043 27.4141 12.0354 27.5816 13.7157C27.6318 14.2186 27.6329 15.7743 27.5835 16.2771C27.3428 18.7263 26.2722 21.2319 24.6452 23.1544C23.0176 25.0774 20.8543 26.4608 18.3796 27.1612C17.8667 27.3064 16.9825 27.49 16.5469 27.5419C16.0779 27.5977 14.5614 27.6176 13.9721 27.5756C12.0663 27.4399 9.98491 26.7465 8.28103 25.6799C5.51023 23.9454 3.49692 21.1637 2.7134 17.9873C2.58026 17.4475 2.49912 16.9969 2.42256 16.3722C2.35241 15.8 2.34156 14.3164 2.40347 13.7634C2.65073 11.5547 3.35786 9.62318 4.56872 7.84909C6.37904 5.19664 9.23428 3.28789 12.3981 2.61516C13.0649 2.47335 13.449 2.42311 14.7101 2.3126C14.7335 2.31057 15.0342 2.32374 15.3783 2.34191ZM14.3843 6.65248C13.4725 6.80037 12.6926 7.198 12.0492 7.84298C11.4742 8.41943 11.095 9.08895 10.9307 9.81797C10.8491 10.1801 10.8186 10.9705 10.8692 11.4089C10.9949 12.4977 11.7033 13.6065 12.6869 14.2541C13.1255 14.5429 13.6895 14.7725 14.2629 14.8956C14.6416 14.9769 15.3778 14.971 15.7801 14.8835C16.4549 14.7366 17.0512 14.4675 17.5874 14.0678C17.8208 13.8938 18.2045 13.4817 18.3882 13.2076C18.7278 12.7011 19.0395 11.977 19.1125 11.5252C19.1595 11.2345 19.1504 10.4198 19.096 10.0566C18.8498 8.41132 17.4664 7.01399 15.7552 6.68216C15.384 6.61016 14.7321 6.59606 14.3843 6.65248ZM17.0503 15.7234C15.7715 16.2767 14.3971 16.2901 13.0726 15.7624C12.8415 15.6703 12.6496 15.6118 12.6111 15.6216C12.4602 15.6601 11.2618 16.7099 10.8716 17.1453C9.80966 18.3305 9.20551 19.6065 8.98522 21.1293C8.92721 21.5306 8.84891 22.4452 8.87076 22.467C8.87881 22.475 11.6394 22.4816 15.0054 22.4816H21.1254L21.1253 22.2782C21.1251 22.0388 21.0779 21.5498 21.0098 21.0816C20.766 19.4055 20.1284 18.1475 18.8953 16.9102C18.4439 16.4572 17.4588 15.5756 17.4074 15.5786C17.3933 15.5794 17.2325 15.6446 17.0503 15.7234Z" fill="#2A2A2A"/>
</svg>
